<?xml version="1.0" encoding="UTF-8"?><svg id="Layer_2" xmlns="http://www.w3.org/2000/svg" viewBox="0 0 188.79 62.8"><defs><style>.cls-1{fill:#00b5e2;}.cls-2{fill:#351f65;}</style></defs><g id="Layer_1-2"><polygon class="cls-1" points="103.25 62.8 103.25 47.52 105.74 47.52 105.74 53.79 112.78 53.79 112.78 47.52 115.27 47.52 115.27 62.8 112.78 62.8 112.78 56.14 105.74 56.14 105.74 62.8 103.25 62.8"/><polygon class="cls-1" points="121 60.45 121 56.12 126.48 56.12 126.48 53.81 121 53.81 121 49.87 127.39 49.87 127.39 47.52 118.51 47.52 118.51 62.8 127.63 62.8 127.63 60.45 121 60.45"/><polygon class="cls-1" points="148.94 60.45 148.94 47.52 146.45 47.52 146.45 62.8 155.3 62.8 155.3 60.45 148.94 60.45"/><polygon class="cls-1" points="171 62.8 171 56.14 178.04 56.14 178.04 62.8 180.53 62.8 180.53 47.52 178.04 47.52 178.04 53.79 171 53.79 171 47.52 168.51 47.52 168.51 62.8 171 62.8"/><polygon class="cls-1" points="159.08 62.8 161.59 62.8 161.59 49.87 166.07 49.87 166.07 47.52 154.6 47.52 154.6 49.87 159.08 49.87 159.08 62.8"/><path class="cls-1" d="m137.85,47.52h-2.34l-6.14,15.28h2.69l1.31-3.36h6.62l1.31,3.36h2.7l-6.15-15.28Zm-3.58,9.61l2.41-6.19,2.41,6.19h-4.82Z"/><polygon class="cls-2" points="17.82 36.06 10.66 36.06 10.66 6.45 0 6.45 0 0 28.38 0 28.38 6.45 17.82 6.45 17.82 36.06"/><polygon class="cls-2" points="62.42 0 58.83 0 55.58 0 55.58 36.06 62.42 36.06 62.42 0"/><path class="cls-2" d="m172.83,30.21c-3.93,0-7.12-3.19-7.12-7.12s3.19-7.12,7.12-7.12c2.3,0,4.35,1.09,5.65,2.79l5.17-3.96c-2.49-3.24-6.41-5.34-10.82-5.34-7.53,0-13.63,6.1-13.63,13.64s6.1,13.64,13.63,13.64c4.41,0,8.32-2.09,10.82-5.34l-5.17-3.96c-1.3,1.69-3.35,2.79-5.65,2.79Z"/><path class="cls-2" d="m118.07,0v11.46c-2.07-1.27-4.51-2.01-7.12-2.01-7.53,0-13.64,6.1-13.64,13.63s6.11,13.64,13.64,13.64,13.63-6.1,13.63-13.64V0h-6.51Zm-7.12,30.21c-3.93,0-7.12-3.19-7.12-7.12s3.19-7.12,7.12-7.12,7.12,3.19,7.12,7.12-3.19,7.12-7.12,7.12Z"/><path class="cls-2" d="m80,9.45c-7.53,0-13.63,6.1-13.63,13.64s6.1,13.64,13.63,13.64c2.61,0,5.05-.88,7.12-2.41v2.08h6.51v-13.31c0-7.53-6.11-13.64-13.64-13.64Zm0,20.76c-3.93,0-7.12-3.19-7.12-7.12s3.19-7.12,7.12-7.12,7.12,3.19,7.12,7.12-3.19,7.12-7.12,7.12Z"/><path class="cls-2" d="m51.63,23.09c0-7.53-6.11-13.64-13.64-13.64s-13.63,6.1-13.63,13.64,6.1,13.63,13.63,13.63c4.41,0,8.32-2.09,10.81-5.34l-4.89-3.75c-1.37,1.78-3.51,2.93-5.93,2.93-3.21,0-5.94-2.03-7-4.87h20.38c.16-.84.25-1.71.25-2.61Zm-20.64-2.61c1.06-2.84,3.79-4.87,7-4.87s5.94,2.03,7,4.87h-14Z"/><path class="cls-2" d="m141.94,36.71c-1.79,0-3.26-1.45-3.26-3.24s1.44-3.25,3.23-3.25h0c-3.93,0-7.14-3.19-7.14-7.12s3.18-7.12,7.11-7.12h0c1.79,0,3.23-1.42,3.23-3.25s-1.45-3.24-3.24-3.24h0c-7.51,0-13.59,6.09-13.59,13.6s6.14,13.62,13.65,13.62Z"/><path class="cls-1" d="m141.87,9.49c1.79,0,3.23,1.45,3.24,3.24s-1.44,3.24-3.23,3.25h0c3.93-.02,7.12,3.15,7.14,7.09.02,3.93-3.18,7.14-7.11,7.16h0c-1.79,0-3.23,1.43-3.23,3.25s1.47,3.25,3.26,3.24h0c7.51-.04,13.6-6.16,13.56-13.67-.04-7.51-6.12-13.59-13.63-13.55Z"/><path class="cls-2" d="m181.63,4.9c0-.5.09-.97.28-1.4.19-.44.44-.82.76-1.14.32-.33.7-.58,1.14-.77.44-.19.91-.28,1.42-.28s.97.09,1.4.28c.44.19.81.44,1.13.77.32.33.57.71.76,1.14.19.44.28.9.28,1.4s-.09.97-.28,1.4c-.19.44-.44.82-.76,1.14-.32.33-.7.58-1.13.77-.44.19-.9.28-1.4.28s-.98-.09-1.42-.28c-.44-.19-.81-.44-1.14-.77-.32-.33-.58-.71-.76-1.14-.19-.44-.28-.9-.28-1.4Zm3.58,3.16c.45,0,.86-.08,1.23-.25.37-.16.7-.39.97-.67.27-.28.48-.62.63-1s.23-.79.23-1.22-.08-.84-.23-1.22-.36-.72-.63-1c-.27-.28-.59-.51-.97-.67-.37-.16-.78-.25-1.23-.25s-.86.08-1.23.25-.7.39-.97.67c-.27.29-.49.62-.64,1s-.23.79-.23,1.22.08.84.23,1.22.36.72.64,1c.27.29.6.51.97.67s.78.25,1.23.25Zm-1.11-5.02h1.26c.42,0,.73.1.93.31.2.21.3.46.3.76,0,.27-.07.5-.2.69-.13.19-.33.34-.6.43l.93,1.56h-.5l-.9-1.51h-.76v1.51h-.44v-3.76Zm1.25,1.86c.25,0,.45-.07.58-.21s.2-.33.2-.57c0-.47-.3-.7-.89-.7h-.7v1.48h.8Z"/></g></svg>